<?xml version="1.0" encoding="UTF-8"?>
<svg xmlns="http://www.w3.org/2000/svg" xml:space="preserve" width="1299px" height="1299px" version="1.1" style="shape-rendering:geometricPrecision; text-rendering:geometricPrecision; image-rendering:optimizeQuality; fill-rule:evenodd; clip-rule:evenodd"
viewBox="0 0 1299 1299"
 xmlns:xlink="http://www.w3.org/1999/xlink"
 data-name="Layer 1">
 <defs>
  <style type="text/css">
   <![CDATA[
    .str0 {stroke:#493527;stroke-width:48.44;stroke-linejoin:round;stroke-miterlimit:22.9256}
    .fil1 {fill:none}
    .fil2 {fill:#D6C175}
    .fil0 {fill:#EFE2B2}
   ]]>
  </style>
 </defs>
 <g id="Plan_x0020_1">
  <metadata id="CorelCorpID_0Corel-Layer"/>
  <path class="fil0" d="M1191.98 649.5c0,0.16 0,0.43 0,0.56 0,299.55 -242.93,542.48 -542.48,542.48 -267.96,0 -495.85,-195.84 -536.25,-460.69 0,-0.72 -0.25,-1.45 -0.29,-2.18 -3.96,-26.46 -5.95,-53.32 -5.95,-80.11 0,-44.08 5.38,-88.1 15.95,-130.85 4.96,-20.42 11.37,-40.63 18.76,-60.32 79.53,-211.3 281.85,-351.37 507.69,-351.37 0,0 0.07,0 0.07,0l1.09 0c11.1,162.41 146.14,288.48 308.92,288.48 9.01,0 17.87,-0.38 26.69,-1.16 2.09,15.7 5.51,31.29 10.07,46.43 28.62,95.55 101.46,171.61 195.72,204.24 0.01,1.49 0.01,2.99 0.01,4.49z"/>
  <path class="fil1 str0" d="M1191.98 649.5c0,299.55 -242.93,542.48 -542.48,542.48 -299.55,0 -542.48,-242.93 -542.48,-542.48 0,-299.55 242.93,-542.48 542.48,-542.48l1.07 0c11.1,162.41 146.14,288.48 308.92,288.48 9.01,0 17.87,-0.38 26.69,-1.16 2.09,15.7 5.51,31.29 10.07,46.43 28.53,95.59 101.46,171.66 195.73,204.24 0,1.49 0,2.99 0,4.49z"/>
  <path class="fil2 str0" d="M420.88 861.6c-2.46,0.22 -4.96,0.33 -7.43,0.33 -43.02,0 -79.12,-32.49 -83.63,-75.26 -0.29,-2.42 -0.45,-4.85 -0.45,-7.28 0,-4.38 0.49,-8.75 1.47,-13.02 4.22,-17.24 18.22,-30.71 33.91,-38.75 13.52,-6.91 28.53,-10.53 43.73,-10.53 53.03,0 96.04,43.02 96.04,96.05 0,2.65 -0.11,5.33 -0.32,7.96l0 0.54c-2.47,23.36 -22.18,41.11 -45.67,41.11 -0.6,0 -1.21,-0.01 -1.81,-0.03l-35.84 -1.12z"/>
  <path class="fil2 str0" d="M910.28 694.88c-1.76,-0.11 -3.55,-0.19 -5.31,-0.19 -8.07,0 -16.11,1.32 -23.75,3.88 -17.04,5.71 -33.82,12.7 -49.91,20.67 -14.59,6.64 -28.04,15.71 -39.66,26.75 -29.06,29.94 -32.89,77.5 -21.36,117.65 0.95,4.29 2.84,8.33 5.53,11.81 3.49,3.43 7.87,5.84 12.64,6.93 7.19,1.94 14.61,2.92 22.05,2.92 8.43,0 16.83,-1.27 24.88,-3.74 29.07,-8.63 57.68,-18.31 85.83,-29.07 11.65,-3.59 22.47,-9.56 31.73,-17.48 8.09,-8.72 14.04,-19.24 17.34,-30.66 2.93,-8.6 5.17,-17.47 6.55,-26.44 0.5,-3.5 0.76,-7.06 0.76,-10.6 0,-38.14 -29.48,-69.79 -67.51,-72.48l0.19 0.05z"/>
  <path class="fil2 str0" d="M598.16 355.69c-4.19,-0.47 -8.42,-0.71 -12.64,-0.71 -23.43,0 -46.29,7.36 -65.34,21.01l-0.38 0.29c-18.46,13.27 -38.17,29.74 -34.68,55.07 1.95,12.31 8.61,23.41 18.54,30.95 20.73,16.51 47.18,18.4 72.66,20.05l36.81 2.37c14.53,0.97 30.8,1.31 41.56,-8.43 4.92,-4.94 8.66,-10.97 10.89,-17.58 5.04,-11.85 7.64,-24.59 7.64,-37.46 0,-3.89 -0.25,-7.8 -0.71,-11.65 -2.18,-16.82 -11.34,-31.97 -25.24,-41.71 -13.85,-9.01 -31.04,-10.65 -47.51,-12.06l-1.6 -0.14z"/>
 </g>
</svg>
